<?xml version="1.0" encoding="UTF-8" standalone="no"?>
<!DOCTYPE svg PUBLIC "-//W3C//DTD SVG 1.1//EN" "http://www.w3.org/Graphics/SVG/1.1/DTD/svg11.dtd">
<svg width="100%" height="100%" viewBox="0 0 786 176" version="1.1" xmlns="http://www.w3.org/2000/svg" xmlns:xlink="http://www.w3.org/1999/xlink" xml:space="preserve" xmlns:serif="http://www.serif.com/" style="fill-rule:evenodd;clip-rule:evenodd;stroke-linejoin:round;stroke-miterlimit:2;">
    <g id="Artboard1" transform="matrix(0.509067,0,0,0.842105,-19.34456,-41.263158)">
        <rect x="38" y="49" width="1544" height="209" style="fill:none;"/>
        <g transform="matrix(0.473209,0,0,0.286063,-12.163809,12.898353)">
            <path d="M783.327,408.666C781.438,444.563 768.402,474.603 744.219,498.786C720.035,522.969 684.422,541.107 637.378,553.198C590.334,565.29 530.915,571.336 459.121,571.336C404.331,571.336 355.208,568.407 311.754,562.551C268.3,556.694 231.269,546.68 200.662,532.51C170.056,518.341 146.628,498.975 130.38,474.414C114.132,449.853 106.008,418.868 106.008,381.46C106.008,344.051 114.132,312.783 130.38,287.655C146.628,262.527 170.056,242.5 200.662,227.575C231.269,212.649 268.3,201.975 311.754,195.551C355.208,189.127 404.331,185.915 459.121,185.915C530.915,185.915 590.428,192.434 637.661,205.47C684.894,218.506 720.602,237.683 744.785,263C768.969,288.316 782.005,319.112 783.894,355.387L636.528,355.387C631.993,343.295 623.68,332.621 611.589,323.363C599.497,314.106 581.36,306.832 557.176,301.542C532.993,296.251 500.308,293.606 459.121,293.606C410.754,293.606 371.457,296.535 341.228,302.392C310.998,308.249 288.893,317.601 274.913,330.448C260.932,343.295 253.941,360.299 253.941,381.46C253.941,400.731 260.932,416.412 274.913,428.504C288.893,440.595 310.998,449.475 341.228,455.143C371.457,460.811 410.754,463.645 459.121,463.645C500.308,463.645 532.899,461.189 556.893,456.277C580.887,451.364 598.93,444.657 611.022,436.155C623.113,427.653 631.426,418.49 635.961,408.666L783.327,408.666Z" style="fill:white;fill-rule:nonzero;"/>
            <rect x="851.91" y="168.912" width="136.031" height="391.088" style="fill:white;fill-rule:nonzero;"/>
            <path d="M1253.2,567.935C1212.391,567.935 1176.116,562.173 1144.376,550.648C1112.635,539.123 1087.602,522.403 1069.275,500.487C1050.949,478.57 1041.786,452.12 1041.786,421.135C1041.786,388.639 1050.949,361.433 1069.275,339.517C1087.602,317.601 1112.635,301.164 1144.376,290.206C1176.116,279.248 1212.391,273.769 1253.2,273.769C1298.544,273.769 1337.747,279.909 1370.81,292.189C1403.873,304.47 1429.379,321.663 1447.328,343.768C1465.276,365.873 1474.25,391.662 1474.25,421.135C1474.25,443.051 1469.149,462.984 1458.947,480.932C1448.745,498.881 1434.008,514.373 1414.737,527.409C1395.466,540.446 1372.227,550.459 1345.021,557.449C1317.815,564.44 1287.208,567.935 1253.2,567.935ZM1304.212,481.782C1332.93,481.782 1359.286,479.987 1383.28,476.398C1407.274,472.808 1426.545,466.668 1441.093,457.977C1455.641,449.286 1462.914,437.006 1462.914,421.135C1462.914,404.887 1455.641,392.418 1441.093,383.727C1426.545,375.036 1407.274,368.99 1383.28,365.589C1359.286,362.189 1332.93,360.488 1304.212,360.488C1265.67,360.488 1235.819,365.495 1214.658,375.508C1193.498,385.522 1182.918,400.731 1182.918,421.135C1182.918,434.36 1187.641,445.507 1197.088,454.576C1206.534,463.645 1220.326,470.446 1238.464,474.981C1256.601,479.515 1278.517,481.782 1304.212,481.782ZM1462.914,282.271L1598.945,282.271L1598.945,560L1470.85,560C1470.85,560 1470.188,555.655 1468.866,546.964C1467.543,538.273 1466.221,525.803 1464.898,509.555C1463.576,493.307 1462.914,474.225 1462.914,452.309L1462.914,282.271Z" style="fill:white;fill-rule:nonzero;"/>
            <path d="M1647.123,460.244L1772.384,460.244C1777.675,470.069 1787.782,476.87 1802.708,480.649C1817.634,484.427 1839.077,486.317 1867.039,486.317C1888.577,486.317 1904.542,485.183 1914.933,482.916C1925.325,480.649 1932.126,477.626 1935.338,473.847C1938.55,470.069 1940.156,466.101 1940.156,461.944C1940.156,455.521 1936.66,451.081 1929.67,448.625C1922.68,446.169 1910.871,444.657 1894.245,444.09C1877.619,443.524 1854.759,443.24 1825.663,443.24C1798.079,443.24 1773.424,442.012 1751.696,439.556C1729.969,437.1 1711.548,433.132 1696.434,427.653C1681.319,422.174 1669.795,414.523 1661.859,404.698C1653.924,394.874 1649.957,382.593 1649.957,367.857C1649.957,349.719 1655.814,334.51 1667.527,322.23C1679.241,309.949 1695.111,300.314 1715.138,293.323C1735.165,286.333 1758.309,281.326 1784.571,278.303C1810.832,275.28 1838.322,273.769 1867.039,273.769C1914.65,273.769 1953.57,278.586 1983.799,288.222C2014.028,297.857 2036.322,310.799 2050.681,327.047C2065.04,343.295 2072.03,361.622 2071.652,382.026L1949.791,382.026C1945.635,372.202 1937.794,365.4 1926.269,361.622C1914.744,357.843 1895.001,355.954 1867.039,355.954C1840.589,355.954 1821.412,357.938 1809.51,361.905C1797.607,365.873 1791.655,372.202 1791.655,380.893C1791.655,386.561 1794.584,390.812 1800.441,393.646C1806.298,396.48 1817.445,398.463 1833.882,399.597C1850.319,400.731 1874.408,401.297 1906.148,401.297C1928.064,401.297 1949.508,402.053 1970.479,403.565C1991.451,405.076 2010.344,408.288 2027.159,413.2C2043.974,418.112 2057.293,425.67 2067.118,435.872C2076.942,446.074 2081.854,460.055 2081.854,477.815C2081.854,499.353 2073.069,516.829 2055.498,530.243C2037.928,543.657 2013.083,553.387 1980.965,559.433C1948.847,565.479 1910.871,568.502 1867.039,568.502C1828.875,568.502 1796.662,566.046 1770.401,561.134C1744.139,556.221 1722.695,549.703 1706.069,541.579C1689.443,533.455 1676.691,524.575 1667.811,514.94C1658.931,505.304 1653.074,495.669 1650.24,486.033C1647.406,476.398 1646.367,467.801 1647.123,460.244Z" style="fill:white;fill-rule:nonzero;"/>
            <path d="M2113.028,282.271L2446.303,282.271L2446.303,367.29L2113.028,367.29L2113.028,282.271ZM2211.65,197.251L2347.681,197.251L2347.681,560L2211.65,560L2211.65,197.251Z" style="fill:white;fill-rule:nonzero;"/>
            <path d="M2483.145,282.271L2619.176,282.271L2619.176,560L2483.145,560L2483.145,282.271ZM2765.409,387.128C2740.848,387.128 2718.365,389.395 2697.96,393.929C2677.556,398.463 2660.174,403.848 2645.815,410.083C2631.456,416.318 2620.687,422.458 2613.508,428.504L2612.374,401.297C2613.508,393.362 2616.531,384.01 2621.443,373.241C2626.355,362.472 2632.968,351.325 2641.281,339.8C2649.594,328.275 2659.796,317.506 2671.888,307.493C2683.979,297.48 2697.866,289.355 2713.547,283.121C2729.229,276.886 2746.516,273.769 2765.409,273.769L2765.409,387.128Z" style="fill:white;fill-rule:nonzero;"/>
            <path d="M3065.81,568.502C3005.73,568.502 2955.758,563.59 2915.893,553.765C2876.028,543.941 2846.177,528.259 2826.339,506.721C2806.502,485.183 2796.583,456.843 2796.583,421.702C2796.583,386.561 2806.502,358.127 2826.339,336.399C2846.177,314.672 2876.028,298.802 2915.893,288.789C2955.758,278.775 3005.73,273.769 3065.81,273.769C3125.513,273.769 3175.107,278.775 3214.594,288.789C3254.081,298.802 3283.648,314.672 3303.297,336.399C3322.946,358.127 3332.771,386.561 3332.771,421.702C3332.771,456.843 3322.946,485.183 3303.297,506.721C3283.648,528.259 3254.081,543.941 3214.594,553.765C3175.107,563.59 3125.513,568.502 3065.81,568.502ZM3065.81,486.317C3093.772,486.317 3117.2,483.955 3136.093,479.232C3154.986,474.508 3169.345,467.329 3179.169,457.694C3188.994,448.058 3193.906,436.061 3193.906,421.702C3193.906,407.343 3189.088,395.252 3179.453,385.427C3169.817,375.603 3155.553,368.234 3136.66,363.322C3117.766,358.41 3094.15,355.954 3065.81,355.954C3037.848,355.954 3014.137,358.41 2994.677,363.322C2975.218,368.234 2960.481,375.508 2950.467,385.144C2940.454,394.779 2935.447,406.965 2935.447,421.702C2935.447,436.061 2940.36,448.058 2950.184,457.694C2960.009,467.329 2974.651,474.508 2994.111,479.232C3013.571,483.955 3037.47,486.317 3065.81,486.317Z" style="fill:white;fill-rule:nonzero;"/>
        </g>
        <g transform="matrix(0.180177,0,0,0.10892,21.028214,172.067176)">
            <path d="M96.372,362.189C96.372,323.647 105.063,288.978 122.445,258.182C139.826,227.386 163.537,203.297 193.577,185.915C223.618,168.534 256.964,159.843 293.617,159.843C336.693,159.843 374.291,170.234 406.409,191.017C438.527,211.799 461.955,241.272 476.692,279.437L414.911,279.437C403.953,255.631 388.177,237.305 367.583,224.457C346.99,211.61 322.334,205.186 293.617,205.186C266.033,205.186 241.283,211.61 219.367,224.457C197.451,237.305 180.258,255.537 167.788,279.153C155.319,302.77 149.084,330.448 149.084,362.189C149.084,393.551 155.319,421.041 167.788,444.657C180.258,468.274 197.451,486.506 219.367,499.353C241.283,512.2 266.033,518.624 293.617,518.624C322.334,518.624 346.99,512.295 367.583,499.636C388.177,486.978 403.953,468.746 414.911,444.941L476.692,444.941C461.955,482.727 438.527,511.917 406.409,532.51C374.291,553.104 336.693,563.401 293.617,563.401C256.964,563.401 223.618,554.804 193.577,537.612C163.537,520.419 139.826,496.519 122.445,465.912C105.063,435.305 96.372,400.731 96.372,362.189Z" style="fill:white;fill-rule:nonzero;"/>
            <path d="M688.673,565.101C659.577,565.101 633.221,558.489 609.605,545.263C585.988,532.038 567.473,513.239 554.059,488.867C540.645,464.495 533.938,436.25 533.938,404.131C533.938,372.391 540.834,344.335 554.626,319.962C568.418,295.59 587.216,276.886 611.022,263.85C634.827,250.813 661.467,244.295 690.94,244.295C720.413,244.295 747.053,250.813 770.858,263.85C794.663,276.886 813.462,295.496 827.254,319.679C841.046,343.862 847.942,372.013 847.942,404.131C847.942,436.25 840.857,464.495 826.687,488.867C812.517,513.239 793.341,532.038 769.158,545.263C744.974,558.489 718.146,565.101 688.673,565.101ZM688.673,519.758C707.188,519.758 724.57,515.412 740.818,506.721C757.066,498.03 770.197,484.994 780.21,467.612C790.224,450.231 795.23,429.07 795.23,404.131C795.23,379.192 790.318,358.032 780.494,340.65C770.669,323.269 757.822,310.327 741.951,301.825C726.081,293.323 708.888,289.072 690.373,289.072C671.48,289.072 654.193,293.323 638.511,301.825C622.83,310.327 610.266,323.269 600.82,340.65C591.373,358.032 586.65,379.192 586.65,404.131C586.65,429.448 591.279,450.798 600.536,468.179C609.794,485.561 622.169,498.503 637.661,507.005C653.154,515.507 670.157,519.758 688.673,519.758Z" style="fill:white;fill-rule:nonzero;"/>
            <path d="M1067.292,243.728C1105.078,243.728 1135.685,255.159 1159.112,278.02C1182.54,300.88 1194.254,333.849 1194.254,376.925L1194.254,560L1143.242,560L1143.242,384.294C1143.242,353.309 1135.496,329.598 1120.004,313.161C1104.511,296.724 1083.351,288.505 1056.523,288.505C1029.316,288.505 1007.684,297.007 991.625,314.011C975.565,331.015 967.536,355.765 967.536,388.261L967.536,560L915.957,560L915.957,249.396L967.536,249.396L967.536,293.606C977.738,277.736 991.625,265.456 1009.195,256.765C1026.766,248.074 1046.131,243.728 1067.292,243.728Z" style="fill:white;fill-rule:nonzero;"/>
            <path d="M1341.62,291.906L1341.62,474.981C1341.62,490.095 1344.832,500.77 1351.256,507.005C1357.68,513.239 1368.827,516.357 1384.697,516.357L1422.672,516.357L1422.672,560L1376.195,560C1347.477,560 1325.939,553.387 1311.58,540.162C1297.221,526.937 1290.042,505.21 1290.042,474.981L1290.042,291.906L1249.8,291.906L1249.8,249.396L1290.042,249.396L1290.042,171.179L1341.62,171.179L1341.62,249.396L1422.672,249.396L1422.672,291.906L1341.62,291.906Z" style="fill:white;fill-rule:nonzero;"/>
            <path d="M1768.417,392.796C1768.417,402.62 1767.85,413.011 1766.717,423.969L1518.46,423.969C1520.35,454.576 1530.835,478.476 1549.917,495.669C1569,512.862 1592.144,521.458 1619.35,521.458C1641.644,521.458 1660.254,516.262 1675.179,505.871C1690.105,495.48 1700.59,481.593 1706.636,464.212L1762.182,464.212C1753.869,494.063 1737.243,518.341 1712.304,537.045C1687.365,555.749 1656.38,565.101 1619.35,565.101C1589.877,565.101 1563.521,558.489 1540.282,545.263C1517.043,532.038 1498.811,513.239 1485.586,488.867C1472.361,464.495 1465.748,436.25 1465.748,404.131C1465.748,372.013 1472.172,343.862 1485.019,319.679C1497.867,295.496 1515.91,276.886 1539.148,263.85C1562.387,250.813 1589.121,244.295 1619.35,244.295C1648.823,244.295 1674.896,250.719 1697.568,263.566C1720.239,276.414 1737.716,294.079 1749.996,316.562C1762.277,339.044 1768.417,364.456 1768.417,392.796ZM1715.138,382.026C1715.138,362.378 1710.793,345.468 1702.102,331.298C1693.411,317.128 1681.603,306.359 1666.677,298.991C1651.752,291.623 1635.22,287.938 1617.083,287.938C1591.01,287.938 1568.811,296.251 1550.484,312.877C1532.158,329.503 1521.672,352.553 1519.027,382.026L1715.138,382.026Z" style="fill:white;fill-rule:nonzero;"/>
            <path d="M1987.766,243.728C2025.553,243.728 2056.16,255.159 2079.587,278.02C2103.015,300.88 2114.729,333.849 2114.729,376.925L2114.729,560L2063.717,560L2063.717,384.294C2063.717,353.309 2055.971,329.598 2040.478,313.161C2024.986,296.724 2003.826,288.505 1976.997,288.505C1949.791,288.505 1928.159,297.007 1912.099,314.011C1896.04,331.015 1888.011,355.765 1888.011,388.261L1888.011,560L1836.432,560L1836.432,249.396L1888.011,249.396L1888.011,293.606C1898.213,277.736 1912.099,265.456 1929.67,256.765C1947.241,248.074 1966.606,243.728 1987.766,243.728Z" style="fill:white;fill-rule:nonzero;"/>
            <path d="M2262.095,291.906L2262.095,474.981C2262.095,490.095 2265.307,500.77 2271.731,507.005C2278.154,513.239 2289.301,516.357 2305.172,516.357L2343.147,516.357L2343.147,560L2296.67,560C2267.952,560 2246.414,553.387 2232.055,540.162C2217.696,526.937 2210.517,505.21 2210.517,474.981L2210.517,291.906L2170.274,291.906L2170.274,249.396L2210.517,249.396L2210.517,171.179L2262.095,171.179L2262.095,249.396L2343.147,249.396L2343.147,291.906L2262.095,291.906Z" style="fill:white;fill-rule:nonzero;"/>
            <path d="M2957.552,167.778L2957.552,560L2905.974,560L2905.974,267.534L2775.611,560L2739.336,560L2608.407,266.967L2608.407,560L2556.828,560L2556.828,167.778L2612.374,167.778L2757.474,491.985L2902.573,167.778L2957.552,167.778Z" style="fill:white;fill-rule:nonzero;"/>
            <path d="M3025.568,403.565C3025.568,371.824 3031.991,343.957 3044.839,319.962C3057.686,295.968 3075.351,277.358 3097.834,264.133C3120.317,250.908 3145.35,244.295 3172.934,244.295C3200.141,244.295 3223.757,250.152 3243.784,261.866C3263.811,273.58 3278.736,288.316 3288.561,306.076L3288.561,249.396L3340.706,249.396L3340.706,560L3288.561,560L3288.561,502.187C3278.358,520.324 3263.149,535.344 3242.934,547.247C3222.718,559.15 3199.196,565.101 3172.368,565.101C3144.784,565.101 3119.845,558.3 3097.551,544.697C3075.257,531.093 3057.686,512.011 3044.839,487.45C3031.991,462.889 3025.568,434.927 3025.568,403.565ZM3288.561,404.131C3288.561,380.704 3283.837,360.299 3274.391,342.918C3264.944,325.536 3252.191,312.216 3236.132,302.959C3220.073,293.701 3202.408,289.072 3183.137,289.072C3163.866,289.072 3146.295,293.606 3130.425,302.675C3114.555,311.744 3101.896,324.969 3092.45,342.351C3083.003,359.732 3078.28,380.137 3078.28,403.565C3078.28,427.37 3083.003,448.058 3092.45,465.629C3101.896,483.199 3114.555,496.613 3130.425,505.871C3146.295,515.129 3163.866,519.758 3183.137,519.758C3202.408,519.758 3220.073,515.129 3236.132,505.871C3252.191,496.613 3264.944,483.199 3274.391,465.629C3283.837,448.058 3288.561,427.559 3288.561,404.131Z" style="fill:white;fill-rule:nonzero;"/>
            <path d="M3579.326,243.728C3617.113,243.728 3647.72,255.159 3671.147,278.02C3694.575,300.88 3706.288,333.849 3706.288,376.925L3706.288,560L3655.277,560L3655.277,384.294C3655.277,353.309 3647.531,329.598 3632.038,313.161C3616.546,296.724 3595.386,288.505 3568.557,288.505C3541.351,288.505 3519.718,297.007 3503.659,314.011C3487.6,331.015 3479.57,355.765 3479.57,388.261L3479.57,560L3427.992,560L3427.992,249.396L3479.57,249.396L3479.57,293.606C3489.773,277.736 3503.659,265.456 3521.23,256.765C3538.801,248.074 3558.166,243.728 3579.326,243.728Z" style="fill:white;fill-rule:nonzero;"/>
            <path d="M3771.47,403.565C3771.47,371.824 3777.893,343.957 3790.741,319.962C3803.588,295.968 3821.253,277.358 3843.736,264.133C3866.219,250.908 3891.252,244.295 3918.836,244.295C3946.043,244.295 3969.659,250.152 3989.686,261.866C4009.713,273.58 4024.638,288.316 4034.463,306.076L4034.463,249.396L4086.608,249.396L4086.608,560L4034.463,560L4034.463,502.187C4024.26,520.324 4009.051,535.344 3988.836,547.247C3968.62,559.15 3945.098,565.101 3918.27,565.101C3890.686,565.101 3865.747,558.3 3843.453,544.697C3821.159,531.093 3803.588,512.011 3790.741,487.45C3777.893,462.889 3771.47,434.927 3771.47,403.565ZM4034.463,404.131C4034.463,380.704 4029.739,360.299 4020.293,342.918C4010.846,325.536 3998.093,312.216 3982.034,302.959C3965.975,293.701 3948.31,289.072 3929.039,289.072C3909.768,289.072 3892.197,293.606 3876.327,302.675C3860.457,311.744 3847.798,324.969 3838.352,342.351C3828.905,359.732 3824.182,380.137 3824.182,403.565C3824.182,427.37 3828.905,448.058 3838.352,465.629C3847.798,483.199 3860.457,496.613 3876.327,505.871C3892.197,515.129 3909.768,519.758 3929.039,519.758C3948.31,519.758 3965.975,515.129 3982.034,505.871C3998.093,496.613 4010.846,483.199 4020.293,465.629C4029.739,448.058 4034.463,427.559 4034.463,404.131Z" style="fill:white;fill-rule:nonzero;"/>
            <path d="M4301.99,244.295C4328.818,244.295 4352.34,250.152 4372.556,261.866C4392.771,273.58 4407.791,288.316 4417.616,306.076L4417.616,249.396L4469.761,249.396L4469.761,566.802C4469.761,595.141 4463.715,620.364 4451.624,642.469C4439.532,664.574 4422.245,681.861 4399.762,694.33C4377.279,706.8 4351.112,713.035 4321.261,713.035C4280.452,713.035 4246.444,703.399 4219.238,684.128C4192.032,664.857 4175.972,638.596 4171.06,605.344L4222.072,605.344C4227.74,624.237 4239.453,639.446 4257.213,650.971C4274.973,662.495 4296.322,668.258 4321.261,668.258C4349.601,668.258 4372.745,659.378 4390.693,641.618C4408.642,623.859 4417.616,598.92 4417.616,566.802L4417.616,501.62C4407.414,519.758 4392.299,534.872 4372.272,546.964C4352.246,559.055 4328.818,565.101 4301.99,565.101C4274.406,565.101 4249.372,558.3 4226.889,544.697C4204.407,531.093 4186.741,512.011 4173.894,487.45C4161.047,462.889 4154.623,434.927 4154.623,403.565C4154.623,371.824 4161.047,343.957 4173.894,319.962C4186.741,295.968 4204.407,277.358 4226.889,264.133C4249.372,250.908 4274.406,244.295 4301.99,244.295ZM4417.616,404.131C4417.616,380.704 4412.893,360.299 4403.446,342.918C4393.999,325.536 4381.247,312.216 4365.187,302.959C4349.128,293.701 4331.463,289.072 4312.192,289.072C4292.921,289.072 4275.35,293.606 4259.48,302.675C4243.61,311.744 4230.951,324.969 4221.505,342.351C4212.058,359.732 4207.335,380.137 4207.335,403.565C4207.335,427.37 4212.058,448.058 4221.505,465.629C4230.951,483.199 4243.61,496.613 4259.48,505.871C4275.35,515.129 4292.921,519.758 4312.192,519.758C4331.463,519.758 4349.128,515.129 4365.187,505.871C4381.247,496.613 4393.999,483.199 4403.446,465.629C4412.893,448.058 4417.616,427.559 4417.616,404.131Z" style="fill:white;fill-rule:nonzero;"/>
            <path d="M4840.445,392.796C4840.445,402.62 4839.878,413.011 4838.744,423.969L4590.488,423.969C4592.378,454.576 4602.863,478.476 4621.945,495.669C4641.028,512.862 4664.172,521.458 4691.378,521.458C4713.672,521.458 4732.281,516.262 4747.207,505.871C4762.133,495.48 4772.618,481.593 4778.664,464.212L4834.21,464.212C4825.897,494.063 4809.271,518.341 4784.332,537.045C4759.393,555.749 4728.408,565.101 4691.378,565.101C4661.904,565.101 4635.548,558.489 4612.31,545.263C4589.071,532.038 4570.839,513.239 4557.614,488.867C4544.389,464.495 4537.776,436.25 4537.776,404.131C4537.776,372.013 4544.2,343.862 4557.047,319.679C4569.895,295.496 4587.938,276.886 4611.176,263.85C4634.415,250.813 4661.149,244.295 4691.378,244.295C4720.851,244.295 4746.924,250.719 4769.595,263.566C4792.267,276.414 4809.743,294.079 4822.024,316.562C4834.305,339.044 4840.445,364.456 4840.445,392.796ZM4787.166,382.026C4787.166,362.378 4782.821,345.468 4774.13,331.298C4765.439,317.128 4753.631,306.359 4738.705,298.991C4723.78,291.623 4707.248,287.938 4689.111,287.938C4663.038,287.938 4640.839,296.251 4622.512,312.877C4604.186,329.503 4593.7,352.553 4591.055,382.026L4787.166,382.026Z" style="fill:white;fill-rule:nonzero;"/>
            <path d="M5281.978,243.728C5306.161,243.728 5327.699,248.735 5346.593,258.749C5365.486,268.762 5380.411,283.782 5391.369,303.809C5402.327,323.835 5407.806,348.208 5407.806,376.925L5407.806,560L5356.795,560L5356.795,384.294C5356.795,353.309 5349.143,329.598 5333.84,313.161C5318.536,296.724 5297.848,288.505 5271.776,288.505C5244.947,288.505 5223.598,297.102 5207.728,314.294C5191.858,331.487 5183.922,356.332 5183.922,388.828L5183.922,560L5132.911,560L5132.911,384.294C5132.911,353.309 5125.259,329.598 5109.956,313.161C5094.652,296.724 5073.964,288.505 5047.892,288.505C5021.063,288.505 4999.714,297.102 4983.844,314.294C4967.974,331.487 4960.039,356.332 4960.039,388.828L4960.039,560L4908.46,560L4908.46,249.396L4960.039,249.396L4960.039,294.173C4970.241,277.925 4983.938,265.456 5001.131,256.765C5018.324,248.074 5037.312,243.728 5058.094,243.728C5084.167,243.728 5107.216,249.585 5127.243,261.299C5147.27,273.013 5162.195,290.206 5172.02,312.877C5180.711,290.961 5195.069,273.958 5215.096,261.866C5235.123,249.774 5257.417,243.728 5281.978,243.728Z" style="fill:white;fill-rule:nonzero;"/>
            <path d="M5775.656,392.796C5775.656,402.62 5775.089,413.011 5773.956,423.969L5525.7,423.969C5527.589,454.576 5538.075,478.476 5557.157,495.669C5576.239,512.862 5599.383,521.458 5626.589,521.458C5648.883,521.458 5667.493,516.262 5682.419,505.871C5697.344,495.48 5707.83,481.593 5713.876,464.212L5769.422,464.212C5761.109,494.063 5744.483,518.341 5719.544,537.045C5694.605,555.749 5663.62,565.101 5626.589,565.101C5597.116,565.101 5570.76,558.489 5547.521,545.263C5524.283,532.038 5506.051,513.239 5492.826,488.867C5479.6,464.495 5472.988,436.25 5472.988,404.131C5472.988,372.013 5479.412,343.862 5492.259,319.679C5505.106,295.496 5523.149,276.886 5546.388,263.85C5569.626,250.813 5596.36,244.295 5626.589,244.295C5656.063,244.295 5682.135,250.719 5704.807,263.566C5727.479,276.414 5744.955,294.079 5757.235,316.562C5769.516,339.044 5775.656,364.456 5775.656,392.796ZM5722.378,382.026C5722.378,362.378 5718.032,345.468 5709.341,331.298C5700.65,317.128 5688.842,306.359 5673.917,298.991C5658.991,291.623 5642.459,287.938 5624.322,287.938C5598.249,287.938 5576.05,296.251 5557.724,312.877C5539.397,329.503 5528.912,352.553 5526.267,382.026L5722.378,382.026Z" style="fill:white;fill-rule:nonzero;"/>
            <path d="M5995.006,243.728C6032.792,243.728 6063.399,255.159 6086.827,278.02C6110.254,300.88 6121.968,333.849 6121.968,376.925L6121.968,560L6070.956,560L6070.956,384.294C6070.956,353.309 6063.21,329.598 6047.718,313.161C6032.225,296.724 6011.065,288.505 5984.237,288.505C5957.031,288.505 5935.398,297.007 5919.339,314.011C5903.28,331.015 5895.25,355.765 5895.25,388.261L5895.25,560L5843.672,560L5843.672,249.396L5895.25,249.396L5895.25,293.606C5905.452,277.736 5919.339,265.456 5936.909,256.765C5954.48,248.074 5973.846,243.728 5995.006,243.728Z" style="fill:white;fill-rule:nonzero;"/>
            <path d="M6269.335,291.906L6269.335,474.981C6269.335,490.095 6272.546,500.77 6278.97,507.005C6285.394,513.239 6296.541,516.357 6312.411,516.357L6350.386,516.357L6350.386,560L6303.909,560C6275.191,560 6253.653,553.387 6239.294,540.162C6224.936,526.937 6217.756,505.21 6217.756,474.981L6217.756,291.906L6177.514,291.906L6177.514,249.396L6217.756,249.396L6217.756,171.179L6269.335,171.179L6269.335,249.396L6350.386,249.396L6350.386,291.906L6269.335,291.906Z" style="fill:white;fill-rule:nonzero;"/>
            <path d="M6689.33,563.968C6663.257,563.968 6639.924,559.339 6619.33,550.081C6598.737,540.823 6582.583,527.976 6570.869,511.539C6559.156,495.102 6553.11,476.114 6552.732,454.576L6607.711,454.576C6609.6,473.091 6617.252,488.678 6630.666,501.337C6644.08,513.995 6663.635,520.324 6689.33,520.324C6713.891,520.324 6733.256,514.184 6747.426,501.904C6761.596,489.623 6768.681,473.847 6768.681,454.576C6768.681,439.462 6764.524,427.181 6756.211,417.735C6747.898,408.288 6737.507,401.109 6725.038,396.196C6712.568,391.284 6695.753,385.994 6674.593,380.326C6648.52,373.525 6627.643,366.723 6611.962,359.921C6596.281,353.12 6582.867,342.445 6571.72,327.898C6560.573,313.35 6554.999,293.795 6554.999,269.234C6554.999,247.696 6560.478,228.614 6571.436,211.988C6582.394,195.362 6597.792,182.515 6617.63,173.446C6637.468,164.377 6660.234,159.843 6685.929,159.843C6722.959,159.843 6753.283,169.101 6776.899,187.616C6800.516,206.131 6813.835,230.692 6816.858,261.299L6760.179,261.299C6758.29,246.185 6750.354,232.865 6736.373,221.34C6722.393,209.815 6703.877,204.053 6680.828,204.053C6659.289,204.053 6641.719,209.626 6628.116,220.773C6614.513,231.92 6607.711,247.507 6607.711,267.534C6607.711,281.893 6611.773,293.606 6619.897,302.675C6628.021,311.744 6638.035,318.64 6649.937,323.363C6661.84,328.086 6678.56,333.471 6700.099,339.517C6726.171,346.696 6747.143,353.781 6763.013,360.772C6778.883,367.762 6792.486,378.531 6803.822,393.079C6815.158,407.627 6820.826,427.37 6820.826,452.309C6820.826,471.58 6815.725,489.717 6805.522,506.721C6795.32,523.725 6780.206,537.517 6760.179,548.097C6740.152,558.677 6716.536,563.968 6689.33,563.968Z" style="fill:white;fill-rule:nonzero;"/>
            <path d="M7164.304,249.396L6977.261,706.233L6923.983,706.233L6985.196,556.599L6859.935,249.396L6917.181,249.396L7014.67,501.053L7111.025,249.396L7164.304,249.396Z" style="fill:white;fill-rule:nonzero;"/>
            <path d="M7325.84,565.101C7302.035,565.101 7280.685,561.039 7261.792,552.915C7242.899,544.791 7227.974,533.455 7217.015,518.907C7206.057,504.36 7200.012,487.639 7198.878,468.746L7252.157,468.746C7253.668,484.238 7260.942,496.897 7273.978,506.721C7287.015,516.546 7304.113,521.458 7325.273,521.458C7344.922,521.458 7360.415,517.113 7371.75,508.422C7383.086,499.731 7388.754,488.773 7388.754,475.548C7388.754,461.944 7382.709,451.837 7370.617,445.224C7358.525,438.611 7339.821,432.093 7314.504,425.67C7291.455,419.624 7272.656,413.484 7258.108,407.249C7243.56,401.014 7231.091,391.756 7220.7,379.476C7210.308,367.195 7205.113,351.042 7205.113,331.015C7205.113,315.145 7209.836,300.597 7219.283,287.372C7228.729,274.146 7242.143,263.661 7259.525,255.915C7276.907,248.168 7296.745,244.295 7319.039,244.295C7353.424,244.295 7381.197,252.986 7402.357,270.368C7423.518,287.75 7434.854,311.555 7436.365,341.784L7384.787,341.784C7383.653,325.536 7377.135,312.5 7365.232,302.675C7353.33,292.851 7337.365,287.938 7317.338,287.938C7298.823,287.938 7284.086,291.906 7273.128,299.841C7262.17,307.776 7256.691,318.168 7256.691,331.015C7256.691,341.217 7259.997,349.625 7266.61,356.237C7273.223,362.85 7281.536,368.14 7291.549,372.108C7301.562,376.075 7315.449,380.515 7333.208,385.427C7355.502,391.473 7373.64,397.424 7387.621,403.281C7401.602,409.138 7413.599,417.923 7423.612,429.637C7433.626,441.351 7438.821,456.654 7439.199,475.548C7439.199,492.551 7434.476,507.855 7425.029,521.458C7415.583,535.061 7402.263,545.736 7385.07,553.482C7367.877,561.228 7348.134,565.101 7325.84,565.101Z" style="fill:white;fill-rule:nonzero;"/>
            <path d="M7574.663,291.906L7574.663,474.981C7574.663,490.095 7577.875,500.77 7584.299,507.005C7590.722,513.239 7601.869,516.357 7617.739,516.357L7655.715,516.357L7655.715,560L7609.238,560C7580.52,560 7558.982,553.387 7544.623,540.162C7530.264,526.937 7523.085,505.21 7523.085,474.981L7523.085,291.906L7482.842,291.906L7482.842,249.396L7523.085,249.396L7523.085,171.179L7574.663,171.179L7574.663,249.396L7655.715,249.396L7655.715,291.906L7574.663,291.906Z" style="fill:white;fill-rule:nonzero;"/>
            <path d="M8001.46,392.796C8001.46,402.62 8000.893,413.011 7999.759,423.969L7751.503,423.969C7753.392,454.576 7763.878,478.476 7782.96,495.669C7802.042,512.862 7825.186,521.458 7852.392,521.458C7874.686,521.458 7893.296,516.262 7908.222,505.871C7923.147,495.48 7933.633,481.593 7939.679,464.212L7995.225,464.212C7986.912,494.063 7970.286,518.341 7945.347,537.045C7920.408,555.749 7889.423,565.101 7852.392,565.101C7822.919,565.101 7796.563,558.489 7773.325,545.263C7750.086,532.038 7731.854,513.239 7718.629,488.867C7705.404,464.495 7698.791,436.25 7698.791,404.131C7698.791,372.013 7705.215,343.862 7718.062,319.679C7730.909,295.496 7748.952,276.886 7772.191,263.85C7795.43,250.813 7822.163,244.295 7852.392,244.295C7881.866,244.295 7907.938,250.719 7930.61,263.566C7953.282,276.414 7970.758,294.079 7983.039,316.562C7995.319,339.044 8001.46,364.456 8001.46,392.796ZM7948.181,382.026C7948.181,362.378 7943.835,345.468 7935.145,331.298C7926.454,317.128 7914.645,306.359 7899.72,298.991C7884.794,291.623 7868.263,287.938 7850.125,287.938C7824.053,287.938 7801.853,296.251 7783.527,312.877C7765.201,329.503 7754.715,352.553 7752.07,382.026L7948.181,382.026Z" style="fill:white;fill-rule:nonzero;"/>
            <path d="M8442.993,243.728C8467.176,243.728 8488.714,248.735 8507.607,258.749C8526.5,268.762 8541.426,283.782 8552.384,303.809C8563.342,323.835 8568.821,348.208 8568.821,376.925L8568.821,560L8517.81,560L8517.81,384.294C8517.81,353.309 8510.158,329.598 8494.854,313.161C8479.551,296.724 8458.863,288.505 8432.79,288.505C8405.962,288.505 8384.613,297.102 8368.743,314.294C8352.872,331.487 8344.937,356.332 8344.937,388.828L8344.937,560L8293.926,560L8293.926,384.294C8293.926,353.309 8286.274,329.598 8270.97,313.161C8255.667,296.724 8234.979,288.505 8208.906,288.505C8182.078,288.505 8160.729,297.102 8144.859,314.294C8128.988,331.487 8121.053,356.332 8121.053,388.828L8121.053,560L8069.475,560L8069.475,249.396L8121.053,249.396L8121.053,294.173C8131.256,277.925 8144.953,265.456 8162.146,256.765C8179.339,248.074 8198.326,243.728 8219.109,243.728C8245.181,243.728 8268.231,249.585 8288.258,261.299C8308.284,273.013 8323.21,290.206 8333.034,312.877C8341.725,290.961 8356.084,273.958 8376.111,261.866C8396.138,249.774 8418.432,243.728 8442.993,243.728Z" style="fill:white;fill-rule:nonzero;"/>
        </g>
    </g>
</svg>
